<?xml version="1.0" encoding="UTF-8" standalone="no"?>
<!-- Created with Inkscape (http://www.inkscape.org/) -->

<svg
   width="960"
   height="960"
   viewBox="0 0 960 960"
   version="1.1"
   id="svg1"
   inkscape:version="1.3.2 (091e20e, 2023-11-25, custom)"
   xml:space="preserve"
   inkscape:export-filename="landscape.square.png"
   inkscape:export-xdpi="96"
   inkscape:export-ydpi="96"
   sodipodi:docname="square-default.inkspace.svg"
   xmlns:inkscape="http://www.inkscape.org/namespaces/inkscape"
   xmlns:sodipodi="http://sodipodi.sourceforge.net/DTD/sodipodi-0.dtd"
   xmlns="http://www.w3.org/2000/svg"
   xmlns:svg="http://www.w3.org/2000/svg"
   xmlns:rdf="http://www.w3.org/1999/02/22-rdf-syntax-ns#"
   xmlns:cc="http://creativecommons.org/ns#"
   xmlns:dc="http://purl.org/dc/elements/1.1/"><sodipodi:namedview
     id="namedview1"
     pagecolor="#000000"
     bordercolor="#eeeeee"
     borderopacity="1"
     inkscape:showpageshadow="false"
     inkscape:pageopacity="0"
     inkscape:pagecheckerboard="false"
     inkscape:deskcolor="#121212"
     inkscape:document-units="px"
     showgrid="false"
     inkscape:zoom="0.39332815"
     inkscape:cx="716.9586"
     inkscape:cy="489.41323"
     inkscape:window-width="1920"
     inkscape:window-height="1009"
     inkscape:window-x="-8"
     inkscape:window-y="-8"
     inkscape:window-maximized="1"
     inkscape:current-layer="layer1"><inkscape:grid
       id="grid1"
       units="px"
       originx="480"
       originy="270"
       spacingx="1"
       spacingy="1"
       empcolor="#0099e5"
       empopacity="0.69803922"
       color="#4d4d4d"
       opacity="0.69803922"
       empspacing="5"
       dotted="false"
       gridanglex="30"
       gridanglez="30"
       visible="false" /></sodipodi:namedview><defs
     id="defs1" /><g
     inkscape:label="Capa 1"
     inkscape:groupmode="layer"
     id="layer1"><rect
       style="fill:#ffffff;stroke-width:4"
       id="rect1"
       width="960"
       height="960"
       x="0"
       y="0" /><g
       style="fill:#c0c0c0"
       id="g1"
       transform="matrix(41.51953,0,0,41.51953,147.84376,147.84552)"><path
         d="m 5,11 a 1,1 0 1 1 -2,0 1,1 0 0 1 2,0 m 8,0 a 1,1 0 1 1 -2,0 1,1 0 0 1 2,0 M 7,10 a 1,1 0 1 0 0,2 H 9 A 1,1 0 1 0 9,10 Z M 8,4 C 6.124,4 4.574,4.109 3.448,4.226 A 0.5,0.5 0 0 0 3,4.723 V 8.277 A 0.5,0.5 0 0 0 3.448,8.774 C 4.574,8.891 6.124,9 8,9 9.876,9 11.426,8.891 12.552,8.774 A 0.5,0.5 0 0 0 13,8.277 V 4.723 A 0.5,0.5 0 0 0 12.552,4.226 44,44 0 0 0 8,4 M 8,3 C 6.163,3 4.647,3.107 3.552,3.22 A 0.5,0.5 0 1 1 3.448,2.226 44,44 0 0 1 8,2 c 1.876,0 3.426,0.109 4.552,0.226 A 0.5,0.5 0 1 1 12.448,3.22 43,43 0 0 0 8,3"
         id="path1"
         style="fill:#c0c0c0" /><path
         d="M 15,8 A 1,1 0 0 0 16,7 V 5 A 1,1 0 0 0 15,4 V 2.64 C 15,1.452 14.155,0.408 12.936,0.268 A 44,44 0 0 0 8,0 C 5.9,0 4.208,0.136 3.064,0.268 1.845,0.408 1,1.452 1,2.64 V 4 A 1,1 0 0 0 0,5 v 2 a 1,1 0 0 0 1,1 v 3.5 c 0,0.818 0.393,1.544 1,2 v 2 A 0.5,0.5 0 0 0 2.5,16 h 2 A 0.5,0.5 0 0 0 5,15.5 V 14 h 6 v 1.5 a 0.5,0.5 0 0 0 0.5,0.5 h 2 A 0.5,0.5 0 0 0 14,15.5 v -2 c 0.607,-0.456 1,-1.182 1,-2 z M 8,1 c 2.056,0 3.71,0.134 4.822,0.261 C 13.498,1.339 14,1.921 14,2.64 V 11.5 A 1.5,1.5 0 0 1 12.5,13 h -9 A 1.5,1.5 0 0 1 2,11.5 V 2.64 C 2,1.92 2.502,1.339 3.178,1.261 A 43,43 0 0 1 8,1"
         id="path2"
         style="fill:#c0c0c0" /></g></g><metadata
     id="metadata1"><rdf:RDF><cc:Work
         rdf:about=""><dc:creator><cc:Agent><dc:title>1812</dc:title></cc:Agent></dc:creator></cc:Work></rdf:RDF></metadata></svg>
